# xmcd
#
# Track frame offsets: 
#        150
#        23953
#        47345
#        64997
#        93314
#        116003
#        133258
#        152129
#
# Disc length: 2519 seconds
#
# Revision: 1
# Processed by: cddbd v1.5.2PL0 Copyright (c) Steve Scherf et al.
# Submitted via: ExactAudioCopyFreeDBPlugin 1.0
#
DISCID=6909d508
DTITLE=Dzem - Cegla
DYEAR=1985
DGENRE=Blues
TTITLE0=Czerwony jak cegla
TTITLE1=Whisky
TTITLE2=Nieudany skok
TTITLE3=Ballada o dziwnym malarzu
TTITLE4=Jesiony
TTITLE5=Powial boczny wiatr
TTITLE6=Kim jestem - jestem sobie
TTITLE7=Oh, slodka
EXTD=
EXTT0=
EXTT1=
EXTT2=
EXTT3=
EXTT4=
EXTT5=
EXTT6=
EXTT7=
PLAYORDER=
